<?xml version="1.0" encoding="UTF-8" standalone="no"?>
<!DOCTYPE svg PUBLIC "-//W3C//DTD SVG 1.1//EN"
 "http://www.w3.org/Graphics/SVG/1.1/DTD/svg11.dtd">
<!-- Generated by graphviz version 2.28.0 (20130109.1152)
 -->
<!-- Title: OutputGraph Pages: 1 -->
<svg width="874pt" height="206pt"
 viewBox="0.00 0.00 874.00 206.00" xmlns="http://www.w3.org/2000/svg" xmlns:xlink="http://www.w3.org/1999/xlink">
<g id="graph1" class="graph" transform="scale(1 1) rotate(0) translate(4 202)">
<title>OutputGraph</title>
<polygon fill="white" stroke="white" points="-4,5 -4,-202 871,-202 871,5 -4,5"/>
<!-- 1418669008 -->
<g id="node1" class="node"><title>1418669008</title>
<ellipse fill="none" stroke="black" cx="118" cy="-27" rx="118.13" ry="26.7407"/>
<text text-anchor="middle" x="118" y="-30.8" font-family="Times,serif" font-size="14.00">key=ESC : 1;key=DEL : 1;</text>
<text text-anchor="middle" x="118" y="-15.8" font-family="Times,serif" font-size="14.00">KeyPressed</text>
</g>
<!-- 1928646612 -->
<g id="node2" class="node"><title>1928646612</title>
<polygon fill="none" stroke="black" points="357.25,-45 254.75,-45 254.75,-9 357.25,-9 357.25,-45"/>
<text text-anchor="middle" x="306" y="-23.3" font-family="Times,serif" font-size="14.00">MouseReleased</text>
</g>
<!-- 1885379340 -->
<g id="node3" class="node"><title>1885379340</title>
<ellipse fill="none" stroke="black" cx="400" cy="-108" rx="60.1672" ry="18"/>
<text text-anchor="middle" x="400" y="-104.3" font-family="Times,serif" font-size="14.00">MouseMoved</text>
</g>
<!-- 1885379340&#45;&gt;1418669008 -->
<g id="edge10" class="edge"><title>1885379340&#45;&gt;1418669008</title>
<path fill="none" stroke="black" d="M357.476,-95.0874C315.991,-83.4655 251.788,-65.4796 200.298,-51.0553"/>
<polygon fill="black" stroke="black" points="201.085,-47.6408 190.511,-48.3134 199.196,-54.3813 201.085,-47.6408"/>
</g>
<!-- 1885379340&#45;&gt;1928646612 -->
<g id="edge2" class="edge"><title>1885379340&#45;&gt;1928646612</title>
<path fill="none" stroke="black" d="M380.523,-90.6311C367.183,-79.4201 349.276,-64.3706 334.359,-51.8338"/>
<polygon fill="black" stroke="black" points="336.335,-48.9221 326.427,-45.1677 331.831,-54.281 336.335,-48.9221"/>
</g>
<!-- 1885379340&#45;&gt;1885379340 -->
<g id="edge4" class="edge"><title>1885379340&#45;&gt;1885379340</title>
<path fill="none" stroke="black" d="M441.331,-121.203C460.854,-122.737 478,-118.336 478,-108 478,-99.5213 466.462,-95.0364 451.539,-94.5453"/>
<polygon fill="black" stroke="black" points="451.241,-91.0515 441.331,-94.7975 451.414,-98.0494 451.241,-91.0515"/>
</g>
<!-- 645440066 -->
<g id="node7" class="node"><title>645440066</title>
<ellipse fill="none" stroke="black" cx="494" cy="-27" rx="118.13" ry="26.7407"/>
<text text-anchor="middle" x="494" y="-30.8" font-family="Times,serif" font-size="14.00">key=ESC : 1;key=DEL : 0;</text>
<text text-anchor="middle" x="494" y="-15.8" font-family="Times,serif" font-size="14.00">KeyPressed</text>
</g>
<!-- 1885379340&#45;&gt;645440066 -->
<g id="edge6" class="edge"><title>1885379340&#45;&gt;645440066</title>
<path fill="none" stroke="black" d="M419.477,-90.6311C430.165,-81.6487 443.785,-70.2023 456.45,-59.5584"/>
<polygon fill="black" stroke="black" points="458.773,-62.1772 464.177,-53.0639 454.27,-56.8184 458.773,-62.1772"/>
</g>
<!-- 971288265 -->
<g id="node9" class="node"><title>971288265</title>
<ellipse fill="none" stroke="black" cx="748" cy="-27" rx="118.13" ry="26.7407"/>
<text text-anchor="middle" x="748" y="-30.8" font-family="Times,serif" font-size="14.00">key=ESC : 0;key=DEL : 1;</text>
<text text-anchor="middle" x="748" y="-15.8" font-family="Times,serif" font-size="14.00">KeyPressed</text>
</g>
<!-- 1885379340&#45;&gt;971288265 -->
<g id="edge8" class="edge"><title>1885379340&#45;&gt;971288265</title>
<path fill="none" stroke="black" d="M446.572,-96.4277C500.059,-84.2854 589.109,-64.07 656.586,-48.7521"/>
<polygon fill="black" stroke="black" points="657.401,-52.1562 666.378,-46.5292 655.851,-45.3299 657.401,-52.1562"/>
</g>
<!-- 59084815 -->
<g id="node11" class="node"><title>59084815</title>
<ellipse fill="none" stroke="black" cx="563" cy="-108" rx="66.4165" ry="18"/>
<text text-anchor="middle" x="563" y="-104.3" font-family="Times,serif" font-size="14.00">MouseReleased</text>
</g>
<!-- 901040791 -->
<g id="node12" class="node"><title>901040791</title>
<ellipse fill="none" stroke="black" cx="481" cy="-180" rx="61.6163" ry="18"/>
<text text-anchor="middle" x="481" y="-176.3" font-family="Times,serif" font-size="14.00">MousePressed</text>
</g>
<!-- 901040791&#45;&gt;1885379340 -->
<g id="edge12" class="edge"><title>901040791&#45;&gt;1885379340</title>
<path fill="none" stroke="black" d="M462.213,-162.765C451.581,-153.576 438.114,-141.938 426.431,-131.842"/>
<polygon fill="black" stroke="black" points="428.539,-129.038 418.685,-125.147 423.962,-134.334 428.539,-129.038"/>
</g>
<!-- 901040791&#45;&gt;59084815 -->
<g id="edge14" class="edge"><title>901040791&#45;&gt;59084815</title>
<path fill="none" stroke="black" d="M500.019,-162.765C510.705,-153.642 524.22,-142.105 535.989,-132.059"/>
<polygon fill="black" stroke="black" points="538.467,-134.544 543.801,-125.39 533.922,-129.22 538.467,-134.544"/>
</g>
</g>
</svg>
