<?xml version="1.0" encoding="UTF-8" standalone="no"?>
<!DOCTYPE svg PUBLIC "-//W3C//DTD SVG 1.1//EN"
 "http://www.w3.org/Graphics/SVG/1.1/DTD/svg11.dtd">
<!-- Generated by graphviz version 2.28.0 (20130109.1152)
 -->
<!-- Title: OutputGraph Pages: 1 -->
<svg width="3704pt" height="548pt"
 viewBox="0.00 0.00 3704.00 548.00" xmlns="http://www.w3.org/2000/svg" xmlns:xlink="http://www.w3.org/1999/xlink">
<g id="graph1" class="graph" transform="scale(1 1) rotate(0) translate(4 544)">
<title>OutputGraph</title>
<polygon fill="white" stroke="white" points="-4,5 -4,-544 3701,-544 3701,5 -4,5"/>
<!-- 2003640822 -->
<g id="node1" class="node"><title>2003640822</title>
<ellipse fill="none" stroke="black" cx="513" cy="-522" rx="46.1964" ry="18"/>
<text text-anchor="middle" x="513" y="-518.3" font-family="Times,serif" font-size="14.00">RootNode</text>
</g>
<!-- 2059942471901040791 -->
<g id="node3" class="node"><title>2059942471901040791</title>
<ellipse fill="none" stroke="black" cx="460" cy="-450" rx="61.6163" ry="18"/>
<text text-anchor="middle" x="460" y="-446.3" font-family="Times,serif" font-size="14.00">MousePressed</text>
</g>
<!-- 2003640822&#45;&gt;2059942471901040791 -->
<g id="edge2" class="edge"><title>2003640822&#45;&gt;2059942471901040791</title>
<path fill="none" stroke="black" d="M500.44,-504.411C494.065,-495.992 486.186,-485.585 479.081,-476.201"/>
<polygon fill="black" stroke="black" points="481.665,-473.816 472.838,-467.956 476.084,-478.042 481.665,-473.816"/>
</g>
<!-- 18692368101639608796 -->
<g id="node13" class="node"><title>18692368101639608796</title>
<polygon fill="none" stroke="black" points="2988.25,-468 2893.75,-468 2893.75,-432 2988.25,-432 2988.25,-468"/>
<text text-anchor="middle" x="2941" y="-446.3" font-family="Times,serif" font-size="14.00">ButtonPressed</text>
</g>
<!-- 2003640822&#45;&gt;18692368101639608796 -->
<g id="edge12" class="edge"><title>2003640822&#45;&gt;18692368101639608796</title>
<path fill="none" stroke="black" d="M559.067,-519.672C860.397,-510.984 2548.32,-462.321 2883.23,-452.666"/>
<polygon fill="black" stroke="black" points="2883.76,-456.152 2893.66,-452.365 2883.56,-449.155 2883.76,-456.152"/>
</g>
<!-- 205994247159084815 -->
<g id="node6" class="node"><title>205994247159084815</title>
<ellipse fill="none" stroke="black" cx="315" cy="-378" rx="66.4165" ry="18"/>
<text text-anchor="middle" x="315" y="-374.3" font-family="Times,serif" font-size="14.00">MouseReleased</text>
</g>
<!-- 2059942471901040791&#45;&gt;205994247159084815 -->
<g id="edge26" class="edge"><title>2059942471901040791&#45;&gt;205994247159084815</title>
<path fill="none" stroke="black" d="M429.603,-434.326C407.976,-423.885 378.699,-409.751 355.151,-398.383"/>
<polygon fill="black" stroke="black" points="356.634,-395.213 346.107,-394.017 353.591,-401.517 356.634,-395.213"/>
</g>
<!-- 20599424711885379340 -->
<g id="node15" class="node"><title>20599424711885379340</title>
<ellipse fill="none" stroke="black" cx="460" cy="-378" rx="60.1672" ry="18"/>
<text text-anchor="middle" x="460" y="-374.3" font-family="Times,serif" font-size="14.00">MouseMoved</text>
</g>
<!-- 2059942471901040791&#45;&gt;20599424711885379340 -->
<g id="edge24" class="edge"><title>2059942471901040791&#45;&gt;20599424711885379340</title>
<path fill="none" stroke="black" d="M460,-431.697C460,-423.983 460,-414.712 460,-406.112"/>
<polygon fill="black" stroke="black" points="463.5,-406.104 460,-396.104 456.5,-406.104 463.5,-406.104"/>
</g>
<!-- 20599424711418669008 -->
<g id="node4" class="node"><title>20599424711418669008</title>
<ellipse fill="none" stroke="black" cx="118" cy="-297" rx="118.13" ry="26.7407"/>
<text text-anchor="middle" x="118" y="-300.8" font-family="Times,serif" font-size="14.00">key=ESC : 1;key=DEL : 1;</text>
<text text-anchor="middle" x="118" y="-285.8" font-family="Times,serif" font-size="14.00">KeyPressed</text>
</g>
<!-- 20599424711418669008&#45;&gt;2003640822 -->
<g id="edge4" class="edge"><title>20599424711418669008&#45;&gt;2003640822</title>
<path fill="none" stroke="red" d="M144.927,-323.212C185.883,-360.235 267.692,-429.117 349,-468 386.429,-485.899 431.424,-499.957 464.809,-509.084"/>
<polygon fill="red" stroke="red" points="464.21,-512.547 474.776,-511.757 466.023,-505.786 464.21,-512.547"/>
</g>
<!-- 205994247159084815&#45;&gt;2003640822 -->
<g id="edge6" class="edge"><title>205994247159084815&#45;&gt;2003640822</title>
<path fill="none" stroke="red" d="M325.397,-395.818C338.244,-415.419 361.772,-447.704 389,-468 412.531,-485.54 442.751,-498.611 467.466,-507.383"/>
<polygon fill="red" stroke="red" points="466.394,-510.716 476.988,-510.65 468.665,-504.094 466.394,-510.716"/>
</g>
<!-- 2059942471645440066 -->
<g id="node8" class="node"><title>2059942471645440066</title>
<ellipse fill="none" stroke="black" cx="494" cy="-297" rx="118.13" ry="26.7407"/>
<text text-anchor="middle" x="494" y="-300.8" font-family="Times,serif" font-size="14.00">key=ESC : 1;key=DEL : 0;</text>
<text text-anchor="middle" x="494" y="-285.8" font-family="Times,serif" font-size="14.00">KeyPressed</text>
</g>
<!-- 2059942471645440066&#45;&gt;2003640822 -->
<g id="edge8" class="edge"><title>2059942471645440066&#45;&gt;2003640822</title>
<path fill="none" stroke="red" d="M522.752,-323.304C532.382,-333.608 541.949,-346.317 547,-360 563.946,-405.903 542.996,-462.454 527.274,-494.855"/>
<polygon fill="red" stroke="red" points="523.991,-493.592 522.61,-504.097 530.24,-496.746 523.991,-493.592"/>
</g>
<!-- 2059942471971288265 -->
<g id="node10" class="node"><title>2059942471971288265</title>
<ellipse fill="none" stroke="black" cx="748" cy="-297" rx="118.13" ry="26.7407"/>
<text text-anchor="middle" x="748" y="-300.8" font-family="Times,serif" font-size="14.00">key=ESC : 0;key=DEL : 1;</text>
<text text-anchor="middle" x="748" y="-285.8" font-family="Times,serif" font-size="14.00">KeyPressed</text>
</g>
<!-- 2059942471971288265&#45;&gt;2003640822 -->
<g id="edge10" class="edge"><title>2059942471971288265&#45;&gt;2003640822</title>
<path fill="none" stroke="red" d="M721.118,-323.51C675.022,-367.251 581.597,-455.906 537.323,-497.919"/>
<polygon fill="red" stroke="red" points="534.745,-495.54 529.901,-504.962 539.564,-500.618 534.745,-495.54"/>
</g>
<!-- 10805877651235641704 -->
<g id="node26" class="node"><title>10805877651235641704</title>
<polygon fill="none" stroke="black" points="1234.25,-396 1139.75,-396 1139.75,-360 1234.25,-360 1234.25,-396"/>
<text text-anchor="middle" x="1187" y="-374.3" font-family="Times,serif" font-size="14.00">ButtonPressed</text>
</g>
<!-- 18692368101639608796&#45;&gt;10805877651235641704 -->
<g id="edge30" class="edge"><title>18692368101639608796&#45;&gt;10805877651235641704</title>
<path fill="none" stroke="black" d="M2893.63,-447.11C2647.39,-437.282 1514.51,-392.071 1244.77,-381.305"/>
<polygon fill="black" stroke="black" points="1244.55,-377.794 1234.42,-380.893 1244.27,-384.789 1244.55,-377.794"/>
</g>
<!-- 1693636761630278169 -->
<g id="node28" class="node"><title>1693636761630278169</title>
<polygon fill="none" stroke="black" points="2291.25,-396 2176.75,-396 2176.75,-360 2291.25,-360 2291.25,-396"/>
<text text-anchor="middle" x="2234" y="-374.3" font-family="Times,serif" font-size="14.00">SliderValueSetted</text>
</g>
<!-- 18692368101639608796&#45;&gt;1693636761630278169 -->
<g id="edge32" class="edge"><title>18692368101639608796&#45;&gt;1693636761630278169</title>
<path fill="none" stroke="black" d="M2893.51,-444.298C2771.03,-432.172 2444.1,-399.802 2301.77,-385.71"/>
<polygon fill="black" stroke="black" points="2301.74,-382.189 2291.44,-384.687 2301.05,-389.155 2301.74,-382.189"/>
</g>
<!-- 1079470257901040791 -->
<g id="node30" class="node"><title>1079470257901040791</title>
<ellipse fill="none" stroke="black" cx="3050" cy="-378" rx="61.6163" ry="18"/>
<text text-anchor="middle" x="3050" y="-374.3" font-family="Times,serif" font-size="14.00">MousePressed</text>
</g>
<!-- 18692368101639608796&#45;&gt;1079470257901040791 -->
<g id="edge34" class="edge"><title>18692368101639608796&#45;&gt;1079470257901040791</title>
<path fill="none" stroke="black" d="M2967.66,-431.876C2982.55,-422.314 3001.23,-410.318 3017.03,-400.17"/>
<polygon fill="black" stroke="black" points="3018.95,-403.099 3025.47,-394.75 3015.17,-397.209 3018.95,-403.099"/>
</g>
<!-- 20599424711928646612 -->
<g id="node14" class="node"><title>20599424711928646612</title>
<polygon fill="none" stroke="black" points="357.25,-315 254.75,-315 254.75,-279 357.25,-279 357.25,-315"/>
<text text-anchor="middle" x="306" y="-293.3" font-family="Times,serif" font-size="14.00">MouseReleased</text>
</g>
<!-- 7247937071639608796 -->
<g id="node24" class="node"><title>7247937071639608796</title>
<polygon fill="none" stroke="black" points="353.25,-225 258.75,-225 258.75,-189 353.25,-189 353.25,-225"/>
<text text-anchor="middle" x="306" y="-203.3" font-family="Times,serif" font-size="14.00">ButtonPressed</text>
</g>
<!-- 20599424711928646612&#45;&gt;7247937071639608796 -->
<g id="edge28" class="edge"><title>20599424711928646612&#45;&gt;7247937071639608796</title>
<path fill="none" stroke="black" d="M306,-278.614C306,-266.24 306,-249.369 306,-235.22"/>
<polygon fill="black" stroke="black" points="309.5,-235.05 306,-225.05 302.5,-235.05 309.5,-235.05"/>
</g>
<!-- 20599424711885379340&#45;&gt;20599424711418669008 -->
<g id="edge22" class="edge"><title>20599424711885379340&#45;&gt;20599424711418669008</title>
<path fill="none" stroke="black" d="M414.836,-365.932C406.579,-363.937 398.034,-361.891 390,-360 330.097,-345.9 262.652,-330.523 209.908,-318.61"/>
<polygon fill="black" stroke="black" points="210.424,-315.139 199.899,-316.351 208.883,-321.967 210.424,-315.139"/>
</g>
<!-- 20599424711885379340&#45;&gt;2059942471645440066 -->
<g id="edge18" class="edge"><title>20599424711885379340&#45;&gt;2059942471645440066</title>
<path fill="none" stroke="black" d="M467.377,-359.858C470.74,-352.044 474.852,-342.49 478.829,-333.249"/>
<polygon fill="black" stroke="black" points="482.149,-334.389 482.888,-323.82 475.72,-331.622 482.149,-334.389"/>
</g>
<!-- 20599424711885379340&#45;&gt;2059942471971288265 -->
<g id="edge20" class="edge"><title>20599424711885379340&#45;&gt;2059942471971288265</title>
<path fill="none" stroke="black" d="M502.806,-365.258C545.437,-353.564 611.996,-335.307 665.015,-320.763"/>
<polygon fill="black" stroke="black" points="666.031,-324.114 674.749,-318.093 664.179,-317.363 666.031,-324.114"/>
</g>
<!-- 20599424711885379340&#45;&gt;20599424711928646612 -->
<g id="edge14" class="edge"><title>20599424711885379340&#45;&gt;20599424711928646612</title>
<path fill="none" stroke="black" d="M431.034,-362.141C407.73,-350.186 374.653,-333.218 348.372,-319.737"/>
<polygon fill="black" stroke="black" points="349.883,-316.578 339.388,-315.127 346.688,-322.806 349.883,-316.578"/>
</g>
<!-- 20599424711885379340&#45;&gt;20599424711885379340 -->
<g id="edge16" class="edge"><title>20599424711885379340&#45;&gt;20599424711885379340</title>
<path fill="none" stroke="black" d="M501.331,-391.203C520.854,-392.737 538,-388.336 538,-378 538,-369.521 526.462,-365.036 511.539,-364.545"/>
<polygon fill="black" stroke="black" points="511.241,-361.051 501.331,-364.797 511.414,-368.049 511.241,-361.051"/>
</g>
<!-- 20519586471235641704 -->
<g id="node77" class="node"><title>20519586471235641704</title>
<polygon fill="none" stroke="black" points="292.25,-135 197.75,-135 197.75,-99 292.25,-99 292.25,-135"/>
<text text-anchor="middle" x="245" y="-113.3" font-family="Times,serif" font-size="14.00">ButtonPressed</text>
</g>
<!-- 7247937071639608796&#45;&gt;20519586471235641704 -->
<g id="edge86" class="edge"><title>7247937071639608796&#45;&gt;20519586471235641704</title>
<path fill="none" stroke="black" d="M293.948,-188.614C285.035,-175.755 272.754,-158.038 262.723,-143.568"/>
<polygon fill="black" stroke="black" points="265.393,-141.275 256.819,-135.05 259.64,-145.263 265.393,-141.275"/>
</g>
<!-- 8290929561630278169 -->
<g id="node79" class="node"><title>8290929561630278169</title>
<polygon fill="none" stroke="black" points="425.25,-135 310.75,-135 310.75,-99 425.25,-99 425.25,-135"/>
<text text-anchor="middle" x="368" y="-113.3" font-family="Times,serif" font-size="14.00">SliderValueSetted</text>
</g>
<!-- 7247937071639608796&#45;&gt;8290929561630278169 -->
<g id="edge88" class="edge"><title>7247937071639608796&#45;&gt;8290929561630278169</title>
<path fill="none" stroke="black" d="M318.249,-188.614C327.309,-175.755 339.791,-158.038 349.986,-143.568"/>
<polygon fill="black" stroke="black" points="353.089,-145.241 355.987,-135.05 347.366,-141.209 353.089,-145.241"/>
</g>
<!-- 714759543901040791 -->
<g id="node40" class="node"><title>714759543901040791</title>
<ellipse fill="none" stroke="black" cx="1134" cy="-297" rx="61.6163" ry="18"/>
<text text-anchor="middle" x="1134" y="-293.3" font-family="Times,serif" font-size="14.00">MousePressed</text>
</g>
<!-- 10805877651235641704&#45;&gt;714759543901040791 -->
<g id="edge44" class="edge"><title>10805877651235641704&#45;&gt;714759543901040791</title>
<path fill="none" stroke="black" d="M1175.5,-359.858C1168.37,-349.227 1159.07,-335.373 1151.09,-323.472"/>
<polygon fill="black" stroke="black" points="1153.77,-321.191 1145.3,-314.837 1147.96,-325.091 1153.77,-321.191"/>
</g>
<!-- 20876015301235641704 -->
<g id="node50" class="node"><title>20876015301235641704</title>
<polygon fill="none" stroke="black" points="2605.25,-315 2510.75,-315 2510.75,-279 2605.25,-279 2605.25,-315"/>
<text text-anchor="middle" x="2558" y="-293.3" font-family="Times,serif" font-size="14.00">ButtonPressed</text>
</g>
<!-- 1693636761630278169&#45;&gt;20876015301235641704 -->
<g id="edge54" class="edge"><title>1693636761630278169&#45;&gt;20876015301235641704</title>
<path fill="none" stroke="black" d="M2291.55,-362.967C2350.6,-348.57 2441.92,-326.303 2500.83,-311.94"/>
<polygon fill="black" stroke="black" points="2501.83,-315.299 2510.72,-309.529 2500.17,-308.498 2501.83,-315.299"/>
</g>
<!-- 731090024901040791 -->
<g id="node52" class="node"><title>731090024901040791</title>
<ellipse fill="none" stroke="black" cx="2106" cy="-297" rx="61.6163" ry="18"/>
<text text-anchor="middle" x="2106" y="-293.3" font-family="Times,serif" font-size="14.00">MousePressed</text>
</g>
<!-- 1693636761630278169&#45;&gt;731090024901040791 -->
<g id="edge56" class="edge"><title>1693636761630278169&#45;&gt;731090024901040791</title>
<path fill="none" stroke="black" d="M2206.23,-359.858C2186.67,-347.787 2160.38,-331.562 2139.63,-318.758"/>
<polygon fill="black" stroke="black" points="2141.46,-315.776 2131.12,-313.502 2137.79,-321.732 2141.46,-315.776"/>
</g>
<!-- 107947025759084815 -->
<g id="node33" class="node"><title>107947025759084815</title>
<ellipse fill="none" stroke="black" cx="3017" cy="-297" rx="66.4165" ry="18"/>
<text text-anchor="middle" x="3017" y="-293.3" font-family="Times,serif" font-size="14.00">MouseReleased</text>
</g>
<!-- 1079470257901040791&#45;&gt;107947025759084815 -->
<g id="edge78" class="edge"><title>1079470257901040791&#45;&gt;107947025759084815</title>
<path fill="none" stroke="black" d="M3042.84,-359.858C3038.52,-349.506 3032.91,-336.099 3028.03,-324.414"/>
<polygon fill="black" stroke="black" points="3031.23,-322.987 3024.15,-315.108 3024.77,-325.685 3031.23,-322.987"/>
</g>
<!-- 10794702571885379340 -->
<g id="node62" class="node"><title>10794702571885379340</title>
<ellipse fill="none" stroke="black" cx="3162" cy="-297" rx="60.1672" ry="18"/>
<text text-anchor="middle" x="3162" y="-293.3" font-family="Times,serif" font-size="14.00">MouseMoved</text>
</g>
<!-- 1079470257901040791&#45;&gt;10794702571885379340 -->
<g id="edge76" class="edge"><title>1079470257901040791&#45;&gt;10794702571885379340</title>
<path fill="none" stroke="black" d="M3072.4,-361.203C3089.34,-349.255 3112.79,-332.714 3131.45,-319.551"/>
<polygon fill="black" stroke="black" points="3133.49,-322.394 3139.64,-313.77 3129.45,-316.673 3133.49,-322.394"/>
</g>
<!-- 10794702571418669008 -->
<g id="node31" class="node"><title>10794702571418669008</title>
<ellipse fill="none" stroke="black" cx="2948" cy="-207" rx="118.13" ry="26.7407"/>
<text text-anchor="middle" x="2948" y="-210.8" font-family="Times,serif" font-size="14.00">key=ESC : 1;key=DEL : 1;</text>
<text text-anchor="middle" x="2948" y="-195.8" font-family="Times,serif" font-size="14.00">KeyPressed</text>
</g>
<!-- 10794702571418669008&#45;&gt;18692368101639608796 -->
<g id="edge36" class="edge"><title>10794702571418669008&#45;&gt;18692368101639608796</title>
<path fill="none" stroke="red" d="M2944.42,-233.888C2943.06,-244.983 2941.67,-258.103 2941,-270 2937.98,-323.615 2939.04,-386.406 2940.04,-421.557"/>
<polygon fill="red" stroke="red" points="2936.56,-422.065 2940.36,-431.952 2943.55,-421.85 2936.56,-422.065"/>
</g>
<!-- 107947025759084815&#45;&gt;18692368101639608796 -->
<g id="edge38" class="edge"><title>107947025759084815&#45;&gt;18692368101639608796</title>
<path fill="none" stroke="red" d="M3005.66,-314.98C2997.71,-327.226 2987.11,-344.296 2979,-360 2968.45,-380.435 2958.31,-404.465 2951.17,-422.401"/>
<polygon fill="red" stroke="red" points="2947.82,-421.343 2947.43,-431.931 2954.34,-423.903 2947.82,-421.343"/>
</g>
<!-- 1079470257645440066 -->
<g id="node35" class="node"><title>1079470257645440066</title>
<ellipse fill="none" stroke="black" cx="3324" cy="-207" rx="118.13" ry="26.7407"/>
<text text-anchor="middle" x="3324" y="-210.8" font-family="Times,serif" font-size="14.00">key=ESC : 1;key=DEL : 0;</text>
<text text-anchor="middle" x="3324" y="-195.8" font-family="Times,serif" font-size="14.00">KeyPressed</text>
</g>
<!-- 1079470257645440066&#45;&gt;18692368101639608796 -->
<g id="edge40" class="edge"><title>1079470257645440066&#45;&gt;18692368101639608796</title>
<path fill="none" stroke="red" d="M3311.84,-234.111C3299.02,-259.493 3276.82,-297.926 3249,-324 3177.71,-390.811 3066,-423.924 2998.51,-438.69"/>
<polygon fill="red" stroke="red" points="2997.54,-435.319 2988.48,-440.821 2998.99,-442.166 2997.54,-435.319"/>
</g>
<!-- 1079470257971288265 -->
<g id="node37" class="node"><title>1079470257971288265</title>
<ellipse fill="none" stroke="black" cx="3578" cy="-207" rx="118.13" ry="26.7407"/>
<text text-anchor="middle" x="3578" y="-210.8" font-family="Times,serif" font-size="14.00">key=ESC : 0;key=DEL : 1;</text>
<text text-anchor="middle" x="3578" y="-195.8" font-family="Times,serif" font-size="14.00">KeyPressed</text>
</g>
<!-- 1079470257971288265&#45;&gt;18692368101639608796 -->
<g id="edge42" class="edge"><title>1079470257971288265&#45;&gt;18692368101639608796</title>
<path fill="none" stroke="red" d="M3535.16,-232.158C3463.64,-271.585 3314.48,-349.974 3180,-396 3119.56,-416.686 3047.7,-431.352 2998.67,-439.936"/>
<polygon fill="red" stroke="red" points="2997.83,-436.529 2988.56,-441.675 2999.01,-443.428 2997.83,-436.529"/>
</g>
<!-- 71475954359084815 -->
<g id="node43" class="node"><title>71475954359084815</title>
<ellipse fill="none" stroke="black" cx="989" cy="-207" rx="66.4165" ry="18"/>
<text text-anchor="middle" x="989" y="-203.3" font-family="Times,serif" font-size="14.00">MouseReleased</text>
</g>
<!-- 714759543901040791&#45;&gt;71475954359084815 -->
<g id="edge104" class="edge"><title>714759543901040791&#45;&gt;71475954359084815</title>
<path fill="none" stroke="black" d="M1108.41,-280.47C1084.85,-266.169 1049.7,-244.837 1023.63,-229.016"/>
<polygon fill="black" stroke="black" points="1025.19,-225.867 1014.82,-223.671 1021.55,-231.851 1025.19,-225.867"/>
</g>
<!-- 7147595431885379340 -->
<g id="node83" class="node"><title>7147595431885379340</title>
<ellipse fill="none" stroke="black" cx="1134" cy="-207" rx="60.1672" ry="18"/>
<text text-anchor="middle" x="1134" y="-203.3" font-family="Times,serif" font-size="14.00">MouseMoved</text>
</g>
<!-- 714759543901040791&#45;&gt;7147595431885379340 -->
<g id="edge102" class="edge"><title>714759543901040791&#45;&gt;7147595431885379340</title>
<path fill="none" stroke="black" d="M1134,-278.614C1134,-266.24 1134,-249.369 1134,-235.22"/>
<polygon fill="black" stroke="black" points="1137.5,-235.05 1134,-225.05 1130.5,-235.05 1137.5,-235.05"/>
</g>
<!-- 7147595431418669008 -->
<g id="node41" class="node"><title>7147595431418669008</title>
<ellipse fill="none" stroke="black" cx="758" cy="-117" rx="118.13" ry="26.7407"/>
<text text-anchor="middle" x="758" y="-120.8" font-family="Times,serif" font-size="14.00">key=ESC : 1;key=DEL : 1;</text>
<text text-anchor="middle" x="758" y="-105.8" font-family="Times,serif" font-size="14.00">KeyPressed</text>
</g>
<!-- 7147595431418669008&#45;&gt;10805877651235641704 -->
<g id="edge46" class="edge"><title>7147595431418669008&#45;&gt;10805877651235641704</title>
<path fill="none" stroke="red" d="M783.26,-143.525C827.115,-186.511 921.801,-273.581 1017,-324 1052.56,-342.832 1095.9,-356.215 1129.92,-364.821"/>
<polygon fill="red" stroke="red" points="1129.16,-368.238 1139.71,-367.231 1130.84,-361.442 1129.16,-368.238"/>
</g>
<!-- 71475954359084815&#45;&gt;10805877651235641704 -->
<g id="edge48" class="edge"><title>71475954359084815&#45;&gt;10805877651235641704</title>
<path fill="none" stroke="red" d="M996.023,-225.247C1006.95,-250.137 1030.21,-296.187 1063,-324 1082.29,-340.365 1107.39,-352.357 1129.96,-360.753"/>
<polygon fill="red" stroke="red" points="1128.86,-364.076 1139.45,-364.134 1131.21,-357.482 1128.86,-364.076"/>
</g>
<!-- 714759543645440066 -->
<g id="node45" class="node"><title>714759543645440066</title>
<ellipse fill="none" stroke="black" cx="1134" cy="-117" rx="118.13" ry="26.7407"/>
<text text-anchor="middle" x="1134" y="-120.8" font-family="Times,serif" font-size="14.00">key=ESC : 1;key=DEL : 0;</text>
<text text-anchor="middle" x="1134" y="-105.8" font-family="Times,serif" font-size="14.00">KeyPressed</text>
</g>
<!-- 714759543645440066&#45;&gt;10805877651235641704 -->
<g id="edge50" class="edge"><title>714759543645440066&#45;&gt;10805877651235641704</title>
<path fill="none" stroke="red" d="M1183.46,-141.534C1198.27,-151.233 1212.76,-164.008 1221,-180 1249.8,-235.887 1220.82,-311.322 1201.41,-350.657"/>
<polygon fill="red" stroke="red" points="1198.15,-349.347 1196.72,-359.846 1204.38,-352.528 1198.15,-349.347"/>
</g>
<!-- 714759543971288265 -->
<g id="node47" class="node"><title>714759543971288265</title>
<ellipse fill="none" stroke="black" cx="1388" cy="-117" rx="118.13" ry="26.7407"/>
<text text-anchor="middle" x="1388" y="-120.8" font-family="Times,serif" font-size="14.00">key=ESC : 0;key=DEL : 1;</text>
<text text-anchor="middle" x="1388" y="-105.8" font-family="Times,serif" font-size="14.00">KeyPressed</text>
</g>
<!-- 714759543971288265&#45;&gt;10805877651235641704 -->
<g id="edge52" class="edge"><title>714759543971288265&#45;&gt;10805877651235641704</title>
<path fill="none" stroke="red" d="M1370.39,-143.734C1342.93,-183.414 1287.69,-261.49 1236,-324 1228.09,-333.561 1218.97,-343.653 1210.76,-352.436"/>
<polygon fill="red" stroke="red" points="1208.16,-350.098 1203.83,-359.771 1213.25,-354.905 1208.16,-350.098"/>
</g>
<!-- 1282733753901040791 -->
<g id="node92" class="node"><title>1282733753901040791</title>
<ellipse fill="none" stroke="black" cx="2603" cy="-207" rx="61.6163" ry="18"/>
<text text-anchor="middle" x="2603" y="-203.3" font-family="Times,serif" font-size="14.00">MousePressed</text>
</g>
<!-- 20876015301235641704&#45;&gt;1282733753901040791 -->
<g id="edge106" class="edge"><title>20876015301235641704&#45;&gt;1282733753901040791</title>
<path fill="none" stroke="black" d="M2566.89,-278.614C2573.4,-265.876 2582.36,-248.372 2589.72,-233.979"/>
<polygon fill="black" stroke="black" points="2592.84,-235.547 2594.28,-225.05 2586.61,-232.36 2592.84,-235.547"/>
</g>
<!-- 73109002459084815 -->
<g id="node55" class="node"><title>73109002459084815</title>
<ellipse fill="none" stroke="black" cx="2139" cy="-207" rx="66.4165" ry="18"/>
<text text-anchor="middle" x="2139" y="-203.3" font-family="Times,serif" font-size="14.00">MouseReleased</text>
</g>
<!-- 731090024901040791&#45;&gt;73109002459084815 -->
<g id="edge128" class="edge"><title>731090024901040791&#45;&gt;73109002459084815</title>
<path fill="none" stroke="black" d="M2112.36,-279.033C2117.08,-266.453 2123.6,-249.06 2129.01,-234.633"/>
<polygon fill="black" stroke="black" points="2132.31,-235.808 2132.54,-225.215 2125.76,-233.35 2132.31,-235.808"/>
</g>
<!-- 7310900241885379340 -->
<g id="node102" class="node"><title>7310900241885379340</title>
<ellipse fill="none" stroke="black" cx="1976" cy="-207" rx="60.1672" ry="18"/>
<text text-anchor="middle" x="1976" y="-203.3" font-family="Times,serif" font-size="14.00">MouseMoved</text>
</g>
<!-- 731090024901040791&#45;&gt;7310900241885379340 -->
<g id="edge126" class="edge"><title>731090024901040791&#45;&gt;7310900241885379340</title>
<path fill="none" stroke="black" d="M2082.76,-280.267C2061.91,-266.152 2031.11,-245.305 2007.95,-229.625"/>
<polygon fill="black" stroke="black" points="2009.72,-226.6 1999.48,-223.893 2005.8,-232.397 2009.72,-226.6"/>
</g>
<!-- 7310900241418669008 -->
<g id="node53" class="node"><title>7310900241418669008</title>
<ellipse fill="none" stroke="black" cx="1642" cy="-117" rx="118.13" ry="26.7407"/>
<text text-anchor="middle" x="1642" y="-120.8" font-family="Times,serif" font-size="14.00">key=ESC : 1;key=DEL : 1;</text>
<text text-anchor="middle" x="1642" y="-105.8" font-family="Times,serif" font-size="14.00">KeyPressed</text>
</g>
<!-- 7310900241418669008&#45;&gt;1693636761630278169 -->
<g id="edge58" class="edge"><title>7310900241418669008&#45;&gt;1693636761630278169</title>
<path fill="none" stroke="red" d="M1681.34,-142.417C1750.57,-184.51 1899.7,-271.281 2035,-324 2077.66,-340.622 2127.44,-353.876 2166.53,-362.973"/>
<polygon fill="red" stroke="red" points="2166.22,-366.491 2176.75,-365.312 2167.78,-359.668 2166.22,-366.491"/>
</g>
<!-- 73109002459084815&#45;&gt;1693636761630278169 -->
<g id="edge60" class="edge"><title>73109002459084815&#45;&gt;1693636761630278169</title>
<path fill="none" stroke="red" d="M2149.4,-224.994C2156.92,-237.391 2167.26,-254.639 2176,-270 2191.57,-297.355 2208.66,-329.103 2220.22,-350.87"/>
<polygon fill="red" stroke="red" points="2217.2,-352.635 2224.97,-359.831 2223.38,-349.356 2217.2,-352.635"/>
</g>
<!-- 731090024645440066 -->
<g id="node57" class="node"><title>731090024645440066</title>
<ellipse fill="none" stroke="black" cx="2018" cy="-117" rx="118.13" ry="26.7407"/>
<text text-anchor="middle" x="2018" y="-120.8" font-family="Times,serif" font-size="14.00">key=ESC : 1;key=DEL : 0;</text>
<text text-anchor="middle" x="2018" y="-105.8" font-family="Times,serif" font-size="14.00">KeyPressed</text>
</g>
<!-- 731090024645440066&#45;&gt;1693636761630278169 -->
<g id="edge62" class="edge"><title>731090024645440066&#45;&gt;1693636761630278169</title>
<path fill="none" stroke="red" d="M2104.13,-135.451C2149.82,-146.537 2199.48,-162.141 2214,-180 2253.71,-228.823 2246.85,-308.558 2239.72,-350.029"/>
<polygon fill="red" stroke="red" points="2236.27,-349.473 2237.89,-359.943 2243.15,-350.749 2236.27,-349.473"/>
</g>
<!-- 731090024971288265 -->
<g id="node59" class="node"><title>731090024971288265</title>
<ellipse fill="none" stroke="black" cx="2272" cy="-117" rx="118.13" ry="26.7407"/>
<text text-anchor="middle" x="2272" y="-120.8" font-family="Times,serif" font-size="14.00">key=ESC : 0;key=DEL : 1;</text>
<text text-anchor="middle" x="2272" y="-105.8" font-family="Times,serif" font-size="14.00">KeyPressed</text>
</g>
<!-- 731090024971288265&#45;&gt;1693636761630278169 -->
<g id="edge64" class="edge"><title>731090024971288265&#45;&gt;1693636761630278169</title>
<path fill="none" stroke="red" d="M2270.17,-143.87C2267.14,-183.08 2260.16,-259.79 2248,-324 2246.38,-332.547 2244.13,-341.748 2241.91,-350.045"/>
<polygon fill="red" stroke="red" points="2238.46,-349.384 2239.16,-359.955 2245.21,-351.255 2238.46,-349.384"/>
</g>
<!-- 10794702571928646612 -->
<g id="node61" class="node"><title>10794702571928646612</title>
<polygon fill="none" stroke="black" points="3187.25,-225 3084.75,-225 3084.75,-189 3187.25,-189 3187.25,-225"/>
<text text-anchor="middle" x="3136" y="-203.3" font-family="Times,serif" font-size="14.00">MouseReleased</text>
</g>
<!-- 16760888811235641704 -->
<g id="node71" class="node"><title>16760888811235641704</title>
<polygon fill="none" stroke="black" points="3154.25,-135 3059.75,-135 3059.75,-99 3154.25,-99 3154.25,-135"/>
<text text-anchor="middle" x="3107" y="-113.3" font-family="Times,serif" font-size="14.00">ButtonPressed</text>
</g>
<!-- 10794702571928646612&#45;&gt;16760888811235641704 -->
<g id="edge80" class="edge"><title>10794702571928646612&#45;&gt;16760888811235641704</title>
<path fill="none" stroke="black" d="M3130.27,-188.614C3126.15,-176.119 3120.52,-159.037 3115.83,-144.804"/>
<polygon fill="black" stroke="black" points="3119.07,-143.453 3112.62,-135.05 3112.42,-145.643 3119.07,-143.453"/>
</g>
<!-- 14828252681630278169 -->
<g id="node73" class="node"><title>14828252681630278169</title>
<polygon fill="none" stroke="black" points="3287.25,-135 3172.75,-135 3172.75,-99 3287.25,-99 3287.25,-135"/>
<text text-anchor="middle" x="3230" y="-113.3" font-family="Times,serif" font-size="14.00">SliderValueSetted</text>
</g>
<!-- 10794702571928646612&#45;&gt;14828252681630278169 -->
<g id="edge82" class="edge"><title>10794702571928646612&#45;&gt;14828252681630278169</title>
<path fill="none" stroke="black" d="M3154.57,-188.614C3168.83,-175.27 3188.67,-156.694 3204.42,-141.944"/>
<polygon fill="black" stroke="black" points="3206.88,-144.44 3211.79,-135.05 3202.09,-139.33 3206.88,-144.44"/>
</g>
<!-- 10794702571885379340&#45;&gt;10794702571418669008 -->
<g id="edge74" class="edge"><title>10794702571885379340&#45;&gt;10794702571418669008</title>
<path fill="none" stroke="black" d="M3128.09,-282.056C3097.23,-269.368 3050.85,-250.291 3012.88,-234.678"/>
<polygon fill="black" stroke="black" points="3014,-231.355 3003.42,-230.789 3011.34,-237.829 3014,-231.355"/>
</g>
<!-- 10794702571885379340&#45;&gt;1079470257645440066 -->
<g id="edge70" class="edge"><title>10794702571885379340&#45;&gt;1079470257645440066</title>
<path fill="none" stroke="black" d="M3189.85,-280.872C3212.04,-268.819 3243.75,-251.591 3270.78,-236.912"/>
<polygon fill="black" stroke="black" points="3272.62,-239.891 3279.74,-232.042 3269.28,-233.74 3272.62,-239.891"/>
</g>
<!-- 10794702571885379340&#45;&gt;1079470257971288265 -->
<g id="edge72" class="edge"><title>10794702571885379340&#45;&gt;1079470257971288265</title>
<path fill="none" stroke="black" d="M3209.72,-285.905C3276.23,-271.835 3398.23,-246.028 3483.52,-227.986"/>
<polygon fill="black" stroke="black" points="3484.41,-231.375 3493.47,-225.881 3482.96,-224.526 3484.41,-231.375"/>
</g>
<!-- 10794702571885379340&#45;&gt;10794702571928646612 -->
<g id="edge66" class="edge"><title>10794702571885379340&#45;&gt;10794702571928646612</title>
<path fill="none" stroke="black" d="M3156.99,-279.033C3153.31,-266.574 3148.23,-249.394 3143.99,-235.05"/>
<polygon fill="black" stroke="black" points="3147.28,-233.814 3141.09,-225.215 3140.56,-235.797 3147.28,-233.814"/>
</g>
<!-- 10794702571885379340&#45;&gt;10794702571885379340 -->
<g id="edge68" class="edge"><title>10794702571885379340&#45;&gt;10794702571885379340</title>
<path fill="none" stroke="black" d="M3199.32,-311.23C3220.44,-314.009 3240,-309.266 3240,-297 3240,-286.747 3226.33,-281.75 3209.51,-282.01"/>
<polygon fill="black" stroke="black" points="3209.03,-278.536 3199.32,-282.77 3209.55,-285.516 3209.03,-278.536"/>
</g>
<!-- 2965558411235641704 -->
<g id="node75" class="node"><title>2965558411235641704</title>
<polygon fill="none" stroke="black" points="3277.25,-45 3182.75,-45 3182.75,-9 3277.25,-9 3277.25,-45"/>
<text text-anchor="middle" x="3230" y="-23.3" font-family="Times,serif" font-size="14.00">ButtonPressed</text>
</g>
<!-- 14828252681630278169&#45;&gt;2965558411235641704 -->
<g id="edge84" class="edge"><title>14828252681630278169&#45;&gt;2965558411235641704</title>
<path fill="none" stroke="black" d="M3230,-98.614C3230,-86.2403 3230,-69.3686 3230,-55.2198"/>
<polygon fill="black" stroke="black" points="3233.5,-55.0504 3230,-45.0504 3226.5,-55.0504 3233.5,-55.0504"/>
</g>
<!-- 16914097561235641704 -->
<g id="node81" class="node"><title>16914097561235641704</title>
<polygon fill="none" stroke="black" points="415.25,-45 320.75,-45 320.75,-9 415.25,-9 415.25,-45"/>
<text text-anchor="middle" x="368" y="-23.3" font-family="Times,serif" font-size="14.00">ButtonPressed</text>
</g>
<!-- 8290929561630278169&#45;&gt;16914097561235641704 -->
<g id="edge90" class="edge"><title>8290929561630278169&#45;&gt;16914097561235641704</title>
<path fill="none" stroke="black" d="M368,-98.614C368,-86.2403 368,-69.3686 368,-55.2198"/>
<polygon fill="black" stroke="black" points="371.5,-55.0504 368,-45.0504 364.5,-55.0504 371.5,-55.0504"/>
</g>
<!-- 7147595431928646612 -->
<g id="node82" class="node"><title>7147595431928646612</title>
<polygon fill="none" stroke="black" points="997.25,-135 894.75,-135 894.75,-99 997.25,-99 997.25,-135"/>
<text text-anchor="middle" x="946" y="-113.3" font-family="Times,serif" font-size="14.00">MouseReleased</text>
</g>
<!-- 7147595431885379340&#45;&gt;7147595431418669008 -->
<g id="edge100" class="edge"><title>7147595431885379340&#45;&gt;7147595431418669008</title>
<path fill="none" stroke="black" d="M1099.82,-192.081C1088.54,-187.818 1075.85,-183.369 1064,-180 985.946,-157.804 964.528,-160.138 885,-144 874.888,-141.948 864.324,-139.797 853.795,-137.648"/>
<polygon fill="black" stroke="black" points="854.225,-134.164 843.727,-135.592 852.824,-141.023 854.225,-134.164"/>
</g>
<!-- 7147595431885379340&#45;&gt;714759543645440066 -->
<g id="edge96" class="edge"><title>7147595431885379340&#45;&gt;714759543645440066</title>
<path fill="none" stroke="black" d="M1134,-188.614C1134,-178.774 1134,-166.089 1134,-154.191"/>
<polygon fill="black" stroke="black" points="1137.5,-154.029 1134,-144.029 1130.5,-154.029 1137.5,-154.029"/>
</g>
<!-- 7147595431885379340&#45;&gt;714759543971288265 -->
<g id="edge98" class="edge"><title>7147595431885379340&#45;&gt;714759543971288265</title>
<path fill="none" stroke="black" d="M1171.75,-192.921C1209.5,-179.841 1268.53,-159.39 1315.39,-143.158"/>
<polygon fill="black" stroke="black" points="1316.58,-146.448 1324.88,-139.867 1314.29,-139.833 1316.58,-146.448"/>
</g>
<!-- 7147595431885379340&#45;&gt;7147595431928646612 -->
<g id="edge92" class="edge"><title>7147595431885379340&#45;&gt;7147595431928646612</title>
<path fill="none" stroke="black" d="M1102.96,-191.469C1072.74,-177.323 1026.45,-155.658 991.964,-139.515"/>
<polygon fill="black" stroke="black" points="993.113,-136.189 982.572,-135.119 990.145,-142.528 993.113,-136.189"/>
</g>
<!-- 7147595431885379340&#45;&gt;7147595431885379340 -->
<g id="edge94" class="edge"><title>7147595431885379340&#45;&gt;7147595431885379340</title>
<path fill="none" stroke="black" d="M1166.86,-222.227C1189.61,-226.841 1212,-221.766 1212,-207 1212,-194.426 1195.76,-188.879 1176.89,-190.359"/>
<polygon fill="black" stroke="black" points="1176.27,-186.911 1166.86,-191.773 1177.25,-193.843 1176.27,-186.911"/>
</g>
<!-- 128273375359084815 -->
<g id="node95" class="node"><title>128273375359084815</title>
<ellipse fill="none" stroke="black" cx="2513" cy="-117" rx="66.4165" ry="18"/>
<text text-anchor="middle" x="2513" y="-113.3" font-family="Times,serif" font-size="14.00">MouseReleased</text>
</g>
<!-- 1282733753901040791&#45;&gt;128273375359084815 -->
<g id="edge144" class="edge"><title>1282733753901040791&#45;&gt;128273375359084815</title>
<path fill="none" stroke="black" d="M2586.07,-189.448C2572.24,-175.927 2552.53,-156.65 2537.06,-141.525"/>
<polygon fill="black" stroke="black" points="2539.45,-138.967 2529.85,-134.478 2534.56,-143.972 2539.45,-138.967"/>
</g>
<!-- 12827337531885379340 -->
<g id="node113" class="node"><title>12827337531885379340</title>
<ellipse fill="none" stroke="black" cx="2658" cy="-117" rx="60.1672" ry="18"/>
<text text-anchor="middle" x="2658" y="-113.3" font-family="Times,serif" font-size="14.00">MouseMoved</text>
</g>
<!-- 1282733753901040791&#45;&gt;12827337531885379340 -->
<g id="edge142" class="edge"><title>1282733753901040791&#45;&gt;12827337531885379340</title>
<path fill="none" stroke="black" d="M2613.6,-189.033C2621.67,-176.128 2632.9,-158.159 2642.05,-143.522"/>
<polygon fill="black" stroke="black" points="2645.1,-145.25 2647.43,-134.915 2639.16,-141.54 2645.1,-145.25"/>
</g>
<!-- 12827337531418669008 -->
<g id="node93" class="node"><title>12827337531418669008</title>
<ellipse fill="none" stroke="black" cx="2388" cy="-27" rx="118.13" ry="26.7407"/>
<text text-anchor="middle" x="2388" y="-30.8" font-family="Times,serif" font-size="14.00">key=ESC : 1;key=DEL : 1;</text>
<text text-anchor="middle" x="2388" y="-15.8" font-family="Times,serif" font-size="14.00">KeyPressed</text>
</g>
<!-- 12827337531418669008&#45;&gt;20876015301235641704 -->
<g id="edge108" class="edge"><title>12827337531418669008&#45;&gt;20876015301235641704</title>
<path fill="none" stroke="red" d="M2396.62,-53.8499C2405.2,-78.0173 2419.58,-114.678 2437,-144 2465.81,-192.508 2508.63,-242.52 2534.85,-271.361"/>
<polygon fill="red" stroke="red" points="2532.44,-273.912 2541.78,-278.915 2537.6,-269.18 2532.44,-273.912"/>
</g>
<!-- 128273375359084815&#45;&gt;20876015301235641704 -->
<g id="edge110" class="edge"><title>128273375359084815&#45;&gt;20876015301235641704</title>
<path fill="none" stroke="red" d="M2514.54,-135.181C2516.88,-158.072 2522.14,-199.675 2532,-234 2535.43,-245.939 2540.5,-258.666 2545.26,-269.463"/>
<polygon fill="red" stroke="red" points="2542.16,-271.101 2549.48,-278.758 2548.53,-268.205 2542.16,-271.101"/>
</g>
<!-- 1282733753645440066 -->
<g id="node97" class="node"><title>1282733753645440066</title>
<ellipse fill="none" stroke="black" cx="2764" cy="-27" rx="118.13" ry="26.7407"/>
<text text-anchor="middle" x="2764" y="-30.8" font-family="Times,serif" font-size="14.00">key=ESC : 1;key=DEL : 0;</text>
<text text-anchor="middle" x="2764" y="-15.8" font-family="Times,serif" font-size="14.00">KeyPressed</text>
</g>
<!-- 1282733753645440066&#45;&gt;20876015301235641704 -->
<g id="edge112" class="edge"><title>1282733753645440066&#45;&gt;20876015301235641704</title>
<path fill="none" stroke="red" d="M2763.49,-53.9572C2762.16,-78.2003 2757.94,-114.913 2745,-144 2724.18,-190.803 2712.34,-201.186 2673,-234 2653.58,-250.201 2629.26,-264.05 2607.99,-274.524"/>
<polygon fill="red" stroke="red" points="2606.28,-271.465 2598.78,-278.949 2609.31,-277.775 2606.28,-271.465"/>
</g>
<!-- 1282733753971288265 -->
<g id="node99" class="node"><title>1282733753971288265</title>
<ellipse fill="none" stroke="black" cx="3018" cy="-27" rx="118.13" ry="26.7407"/>
<text text-anchor="middle" x="3018" y="-30.8" font-family="Times,serif" font-size="14.00">key=ESC : 0;key=DEL : 1;</text>
<text text-anchor="middle" x="3018" y="-15.8" font-family="Times,serif" font-size="14.00">KeyPressed</text>
</g>
<!-- 1282733753971288265&#45;&gt;20876015301235641704 -->
<g id="edge114" class="edge"><title>1282733753971288265&#45;&gt;20876015301235641704</title>
<path fill="none" stroke="red" d="M2986.18,-53.0035C2932.4,-94.4606 2819.08,-178.365 2714,-234 2682.28,-250.796 2644.97,-265.782 2614.79,-276.812"/>
<polygon fill="red" stroke="red" points="2613.48,-273.565 2605.26,-280.251 2615.85,-280.149 2613.48,-273.565"/>
</g>
<!-- 7310900241928646612 -->
<g id="node101" class="node"><title>7310900241928646612</title>
<polygon fill="none" stroke="black" points="1881.25,-135 1778.75,-135 1778.75,-99 1881.25,-99 1881.25,-135"/>
<text text-anchor="middle" x="1830" y="-113.3" font-family="Times,serif" font-size="14.00">MouseReleased</text>
</g>
<!-- 3178544381235641704 -->
<g id="node111" class="node"><title>3178544381235641704</title>
<polygon fill="none" stroke="black" points="1877.25,-45 1782.75,-45 1782.75,-9 1877.25,-9 1877.25,-45"/>
<text text-anchor="middle" x="1830" y="-23.3" font-family="Times,serif" font-size="14.00">ButtonPressed</text>
</g>
<!-- 7310900241928646612&#45;&gt;3178544381235641704 -->
<g id="edge130" class="edge"><title>7310900241928646612&#45;&gt;3178544381235641704</title>
<path fill="none" stroke="black" d="M1830,-98.614C1830,-86.2403 1830,-69.3686 1830,-55.2198"/>
<polygon fill="black" stroke="black" points="1833.5,-55.0504 1830,-45.0504 1826.5,-55.0504 1833.5,-55.0504"/>
</g>
<!-- 7310900241885379340&#45;&gt;7310900241418669008 -->
<g id="edge124" class="edge"><title>7310900241885379340&#45;&gt;7310900241418669008</title>
<path fill="none" stroke="black" d="M1932.34,-194.496C1880.45,-180.825 1792.67,-157.698 1727.19,-140.444"/>
<polygon fill="black" stroke="black" points="1727.85,-136.999 1717.28,-137.835 1726.06,-143.768 1727.85,-136.999"/>
</g>
<!-- 7310900241885379340&#45;&gt;731090024645440066 -->
<g id="edge120" class="edge"><title>7310900241885379340&#45;&gt;731090024645440066</title>
<path fill="none" stroke="black" d="M1984.1,-189.033C1988.96,-178.844 1995.33,-165.498 2001.23,-153.128"/>
<polygon fill="black" stroke="black" points="2004.48,-154.459 2005.63,-143.927 1998.16,-151.444 2004.48,-154.459"/>
</g>
<!-- 7310900241885379340&#45;&gt;731090024971288265 -->
<g id="edge122" class="edge"><title>7310900241885379340&#45;&gt;731090024971288265</title>
<path fill="none" stroke="black" d="M2017.15,-193.683C2031.64,-189.351 2048.04,-184.454 2063,-180 2105.64,-167.305 2153.18,-153.198 2192.14,-141.651"/>
<polygon fill="black" stroke="black" points="2193.25,-144.97 2201.85,-138.773 2191.26,-138.259 2193.25,-144.97"/>
</g>
<!-- 7310900241885379340&#45;&gt;7310900241928646612 -->
<g id="edge116" class="edge"><title>7310900241885379340&#45;&gt;7310900241928646612</title>
<path fill="none" stroke="black" d="M1950.57,-190.672C1927.55,-176.796 1893.35,-156.182 1867.25,-140.45"/>
<polygon fill="black" stroke="black" points="1868.75,-137.272 1858.38,-135.108 1865.14,-143.267 1868.75,-137.272"/>
</g>
<!-- 7310900241885379340&#45;&gt;7310900241885379340 -->
<g id="edge118" class="edge"><title>7310900241885379340&#45;&gt;7310900241885379340</title>
<path fill="none" stroke="black" d="M2008.86,-222.227C2031.61,-226.841 2054,-221.766 2054,-207 2054,-194.426 2037.76,-188.879 2018.89,-190.359"/>
<polygon fill="black" stroke="black" points="2018.27,-186.911 2008.86,-191.773 2019.25,-193.843 2018.27,-186.911"/>
</g>
<!-- 12827337531928646612 -->
<g id="node112" class="node"><title>12827337531928646612</title>
<polygon fill="none" stroke="black" points="2627.25,-45 2524.75,-45 2524.75,-9 2627.25,-9 2627.25,-45"/>
<text text-anchor="middle" x="2576" y="-23.3" font-family="Times,serif" font-size="14.00">MouseReleased</text>
</g>
<!-- 12827337531885379340&#45;&gt;12827337531418669008 -->
<g id="edge140" class="edge"><title>12827337531885379340&#45;&gt;12827337531418669008</title>
<path fill="none" stroke="black" d="M2622.52,-102.392C2611.51,-98.2825 2599.29,-93.8436 2588,-90 2548.67,-76.6112 2504.6,-62.82 2467.85,-51.6542"/>
<polygon fill="black" stroke="black" points="2468.77,-48.2755 2458.19,-48.7258 2466.74,-54.9749 2468.77,-48.2755"/>
</g>
<!-- 12827337531885379340&#45;&gt;1282733753645440066 -->
<g id="edge136" class="edge"><title>12827337531885379340&#45;&gt;1282733753645440066</title>
<path fill="none" stroke="black" d="M2677.44,-99.8594C2691,-88.6022 2709.54,-73.2117 2725.98,-59.5615"/>
<polygon fill="black" stroke="black" points="2728.4,-62.1065 2733.86,-53.026 2723.93,-56.7206 2728.4,-62.1065"/>
</g>
<!-- 12827337531885379340&#45;&gt;1282733753971288265 -->
<g id="edge138" class="edge"><title>12827337531885379340&#45;&gt;1282733753971288265</title>
<path fill="none" stroke="black" d="M2703.23,-104.944C2759.77,-91.1221 2857.83,-67.1523 2929.51,-49.6304"/>
<polygon fill="black" stroke="black" points="2930.56,-52.977 2939.44,-47.2025 2928.9,-46.1772 2930.56,-52.977"/>
</g>
<!-- 12827337531885379340&#45;&gt;12827337531928646612 -->
<g id="edge132" class="edge"><title>12827337531885379340&#45;&gt;12827337531928646612</title>
<path fill="none" stroke="black" d="M2642.58,-99.4479C2630.25,-86.2198 2612.79,-67.481 2598.84,-52.5127"/>
<polygon fill="black" stroke="black" points="2601.29,-50.0082 2591.91,-45.0782 2596.17,-54.7803 2601.29,-50.0082"/>
</g>
<!-- 12827337531885379340&#45;&gt;12827337531885379340 -->
<g id="edge134" class="edge"><title>12827337531885379340&#45;&gt;12827337531885379340</title>
<path fill="none" stroke="black" d="M2690.86,-132.227C2713.61,-136.841 2736,-131.766 2736,-117 2736,-104.426 2719.76,-98.879 2700.89,-100.359"/>
<polygon fill="black" stroke="black" points="2700.27,-96.9113 2690.86,-101.773 2701.25,-103.843 2700.27,-96.9113"/>
</g>
</g>
</svg>
