<?xml version="1.0" encoding="UTF-8" standalone="no"?>
<!DOCTYPE svg PUBLIC "-//W3C//DTD SVG 1.1//EN"
 "http://www.w3.org/Graphics/SVG/1.1/DTD/svg11.dtd">
<!-- Generated by graphviz version 2.28.0 (20130109.1152)
 -->
<!-- Title: OutputGraph Pages: 1 -->
<svg width="1868pt" height="404pt"
 viewBox="0.00 0.00 1868.00 404.00" xmlns="http://www.w3.org/2000/svg" xmlns:xlink="http://www.w3.org/1999/xlink">
<g id="graph1" class="graph" transform="scale(1 1) rotate(0) translate(4 400)">
<title>OutputGraph</title>
<polygon fill="white" stroke="white" points="-4,5 -4,-400 1865,-400 1865,5 -4,5"/>
<!-- 2003640822 -->
<g id="node1" class="node"><title>2003640822</title>
<ellipse fill="none" stroke="black" cx="676" cy="-378" rx="46.1964" ry="18"/>
<text text-anchor="middle" x="676" y="-374.3" font-family="Times,serif" font-size="14.00">RootNode</text>
</g>
<!-- 2059942471 -->
<g id="node3" class="node"><title>2059942471</title>
<ellipse fill="none" stroke="black" cx="526" cy="-297" rx="94.1301" ry="26.7407"/>
<text text-anchor="middle" x="526" y="-300.8" font-family="Times,serif" font-size="14.00">DragNDrop</text>
<text text-anchor="middle" x="526" y="-285.8" font-family="Times,serif" font-size="14.00">customWidgetAction</text>
</g>
<!-- 2003640822&#45;&gt;2059942471 -->
<g id="edge2" class="edge"><title>2003640822&#45;&gt;2059942471</title>
<path fill="none" stroke="black" d="M649.528,-363.058C629.914,-352.728 602.54,-338.311 578.544,-325.673"/>
<polygon fill="black" stroke="black" points="580.015,-322.492 569.537,-320.929 576.753,-328.686 580.015,-322.492"/>
</g>
<!-- 1869236810 -->
<g id="node5" class="node"><title>1869236810</title>
<ellipse fill="none" stroke="black" cx="826" cy="-297" rx="155.906" ry="26.7407"/>
<text text-anchor="middle" x="826" y="-300.8" font-family="Times,serif" font-size="14.00">Button_press</text>
<text text-anchor="middle" x="826" y="-285.8" font-family="Times,serif" font-size="14.00">Activate_OutputSelector_Deactivator</text>
</g>
<!-- 2003640822&#45;&gt;1869236810 -->
<g id="edge4" class="edge"><title>2003640822&#45;&gt;1869236810</title>
<path fill="none" stroke="black" d="M702.472,-363.058C721.183,-353.204 746.955,-339.63 770.12,-327.43"/>
<polygon fill="black" stroke="black" points="771.968,-330.413 779.185,-322.656 768.706,-324.219 771.968,-330.413"/>
</g>
<!-- 724793707 -->
<g id="node7" class="node"><title>724793707</title>
<ellipse fill="none" stroke="black" cx="372" cy="-207" rx="155.906" ry="26.7407"/>
<text text-anchor="middle" x="372" y="-210.8" font-family="Times,serif" font-size="14.00">Button_press</text>
<text text-anchor="middle" x="372" y="-195.8" font-family="Times,serif" font-size="14.00">Activate_OutputSelector_Deactivator</text>
</g>
<!-- 2059942471&#45;&gt;724793707 -->
<g id="edge6" class="edge"><title>2059942471&#45;&gt;724793707</title>
<path fill="none" stroke="black" d="M485.135,-272.649C466.512,-262.007 444.242,-249.281 424.406,-237.946"/>
<polygon fill="black" stroke="black" points="425.904,-234.771 415.485,-232.848 422.431,-240.849 425.904,-234.771"/>
</g>
<!-- 1080587765 -->
<g id="node9" class="node"><title>1080587765</title>
<ellipse fill="none" stroke="black" cx="703" cy="-207" rx="155.906" ry="26.7407"/>
<text text-anchor="middle" x="703" y="-210.8" font-family="Times,serif" font-size="14.00">Button_press</text>
<text text-anchor="middle" x="703" y="-195.8" font-family="Times,serif" font-size="14.00">Deactivate_OutputSelector_Activator</text>
</g>
<!-- 1869236810&#45;&gt;1080587765 -->
<g id="edge8" class="edge"><title>1869236810&#45;&gt;1080587765</title>
<path fill="none" stroke="black" d="M790.753,-270.783C776.986,-260.933 761.057,-249.537 746.581,-239.18"/>
<polygon fill="black" stroke="black" points="748.421,-236.193 738.252,-233.221 744.348,-241.886 748.421,-236.193"/>
</g>
<!-- 169363676 -->
<g id="node11" class="node"><title>169363676</title>
<ellipse fill="none" stroke="black" cx="950" cy="-207" rx="72.2493" ry="26.7407"/>
<text text-anchor="middle" x="950" y="-210.8" font-family="Times,serif" font-size="14.00">Slider_setValue</text>
<text text-anchor="middle" x="950" y="-195.8" font-family="Times,serif" font-size="14.00">setOutput</text>
</g>
<!-- 1869236810&#45;&gt;169363676 -->
<g id="edge10" class="edge"><title>1869236810&#45;&gt;169363676</title>
<path fill="none" stroke="black" d="M861.533,-270.783C876.388,-260.241 893.738,-247.928 909.118,-237.013"/>
<polygon fill="black" stroke="black" points="911.302,-239.755 917.432,-231.113 907.251,-234.046 911.302,-239.755"/>
</g>
<!-- 1079470257 -->
<g id="node13" class="node"><title>1079470257</title>
<ellipse fill="none" stroke="black" cx="1457" cy="-207" rx="94.1301" ry="26.7407"/>
<text text-anchor="middle" x="1457" y="-210.8" font-family="Times,serif" font-size="14.00">DragNDrop</text>
<text text-anchor="middle" x="1457" y="-195.8" font-family="Times,serif" font-size="14.00">customWidgetAction</text>
</g>
<!-- 1869236810&#45;&gt;1079470257 -->
<g id="edge12" class="edge"><title>1869236810&#45;&gt;1079470257</title>
<path fill="none" stroke="black" d="M944.686,-279.448C1066.03,-262.525 1252.04,-236.584 1363.38,-221.056"/>
<polygon fill="black" stroke="black" points="1364.17,-224.481 1373.59,-219.633 1363.2,-217.548 1364.17,-224.481"/>
</g>
<!-- 2051958647 -->
<g id="node27" class="node"><title>2051958647</title>
<ellipse fill="none" stroke="black" cx="156" cy="-117" rx="155.906" ry="26.7407"/>
<text text-anchor="middle" x="156" y="-120.8" font-family="Times,serif" font-size="14.00">Button_press</text>
<text text-anchor="middle" x="156" y="-105.8" font-family="Times,serif" font-size="14.00">Deactivate_OutputSelector_Activator</text>
</g>
<!-- 724793707&#45;&gt;2051958647 -->
<g id="edge26" class="edge"><title>724793707&#45;&gt;2051958647</title>
<path fill="none" stroke="black" d="M313.262,-182.07C285.764,-170.867 252.843,-157.455 224.245,-145.803"/>
<polygon fill="black" stroke="black" points="225.307,-142.457 214.726,-141.925 222.666,-148.94 225.307,-142.457"/>
</g>
<!-- 829092956 -->
<g id="node29" class="node"><title>829092956</title>
<ellipse fill="none" stroke="black" cx="403" cy="-117" rx="72.2493" ry="26.7407"/>
<text text-anchor="middle" x="403" y="-120.8" font-family="Times,serif" font-size="14.00">Slider_setValue</text>
<text text-anchor="middle" x="403" y="-105.8" font-family="Times,serif" font-size="14.00">setOutput</text>
</g>
<!-- 724793707&#45;&gt;829092956 -->
<g id="edge28" class="edge"><title>724793707&#45;&gt;829092956</title>
<path fill="none" stroke="black" d="M381.133,-180.073C384.098,-171.659 387.438,-162.177 390.599,-153.204"/>
<polygon fill="black" stroke="black" points="393.91,-154.336 393.932,-143.742 387.308,-152.011 393.91,-154.336"/>
</g>
<!-- 714759543 -->
<g id="node15" class="node"><title>714759543</title>
<ellipse fill="none" stroke="black" cx="650" cy="-117" rx="94.1301" ry="26.7407"/>
<text text-anchor="middle" x="650" y="-120.8" font-family="Times,serif" font-size="14.00">DragNDrop</text>
<text text-anchor="middle" x="650" y="-105.8" font-family="Times,serif" font-size="14.00">customWidgetAction</text>
</g>
<!-- 1080587765&#45;&gt;714759543 -->
<g id="edge14" class="edge"><title>1080587765&#45;&gt;714759543</title>
<path fill="none" stroke="black" d="M687.385,-180.073C682.155,-171.39 676.241,-161.571 670.686,-152.346"/>
<polygon fill="black" stroke="black" points="673.661,-150.502 665.503,-143.742 667.665,-154.114 673.661,-150.502"/>
</g>
<!-- 2087601530 -->
<g id="node17" class="node"><title>2087601530</title>
<ellipse fill="none" stroke="black" cx="919" cy="-117" rx="155.906" ry="26.7407"/>
<text text-anchor="middle" x="919" y="-120.8" font-family="Times,serif" font-size="14.00">Button_press</text>
<text text-anchor="middle" x="919" y="-105.8" font-family="Times,serif" font-size="14.00">Deactivate_OutputSelector_Activator</text>
</g>
<!-- 169363676&#45;&gt;2087601530 -->
<g id="edge16" class="edge"><title>169363676&#45;&gt;2087601530</title>
<path fill="none" stroke="black" d="M940.867,-180.073C937.96,-171.822 934.692,-162.544 931.585,-153.727"/>
<polygon fill="black" stroke="black" points="934.799,-152.315 928.175,-144.046 928.197,-154.641 934.799,-152.315"/>
</g>
<!-- 731090024 -->
<g id="node19" class="node"><title>731090024</title>
<ellipse fill="none" stroke="black" cx="1188" cy="-117" rx="94.1301" ry="26.7407"/>
<text text-anchor="middle" x="1188" y="-120.8" font-family="Times,serif" font-size="14.00">DragNDrop</text>
<text text-anchor="middle" x="1188" y="-105.8" font-family="Times,serif" font-size="14.00">customWidgetAction</text>
</g>
<!-- 169363676&#45;&gt;731090024 -->
<g id="edge18" class="edge"><title>169363676&#45;&gt;731090024</title>
<path fill="none" stroke="black" d="M1000.18,-187.445C1035.76,-174.289 1083.85,-156.51 1122.46,-142.234"/>
<polygon fill="black" stroke="black" points="1123.89,-145.436 1132.06,-138.685 1121.46,-138.871 1123.89,-145.436"/>
</g>
<!-- 1676088881 -->
<g id="node21" class="node"><title>1676088881</title>
<ellipse fill="none" stroke="black" cx="1457" cy="-117" rx="155.906" ry="26.7407"/>
<text text-anchor="middle" x="1457" y="-120.8" font-family="Times,serif" font-size="14.00">Button_press</text>
<text text-anchor="middle" x="1457" y="-105.8" font-family="Times,serif" font-size="14.00">Deactivate_OutputSelector_Activator</text>
</g>
<!-- 1079470257&#45;&gt;1676088881 -->
<g id="edge20" class="edge"><title>1079470257&#45;&gt;1676088881</title>
<path fill="none" stroke="black" d="M1457,-180.073C1457,-171.999 1457,-162.943 1457,-154.296"/>
<polygon fill="black" stroke="black" points="1460.5,-154.046 1457,-144.046 1453.5,-154.046 1460.5,-154.046"/>
</g>
<!-- 1482825268 -->
<g id="node23" class="node"><title>1482825268</title>
<ellipse fill="none" stroke="black" cx="1704" cy="-117" rx="72.2493" ry="26.7407"/>
<text text-anchor="middle" x="1704" y="-120.8" font-family="Times,serif" font-size="14.00">Slider_setValue</text>
<text text-anchor="middle" x="1704" y="-105.8" font-family="Times,serif" font-size="14.00">setOutput</text>
</g>
<!-- 1079470257&#45;&gt;1482825268 -->
<g id="edge22" class="edge"><title>1079470257&#45;&gt;1482825268</title>
<path fill="none" stroke="black" d="M1514.29,-185.59C1552.91,-171.829 1603.81,-153.697 1643.16,-139.677"/>
<polygon fill="black" stroke="black" points="1644.65,-142.86 1652.9,-136.207 1642.3,-136.266 1644.65,-142.86"/>
</g>
<!-- 1282733753 -->
<g id="node33" class="node"><title>1282733753</title>
<ellipse fill="none" stroke="black" cx="919" cy="-27" rx="94.1301" ry="26.7407"/>
<text text-anchor="middle" x="919" y="-30.8" font-family="Times,serif" font-size="14.00">DragNDrop</text>
<text text-anchor="middle" x="919" y="-15.8" font-family="Times,serif" font-size="14.00">customWidgetAction</text>
</g>
<!-- 2087601530&#45;&gt;1282733753 -->
<g id="edge32" class="edge"><title>2087601530&#45;&gt;1282733753</title>
<path fill="none" stroke="black" d="M919,-90.0731C919,-81.9993 919,-72.9428 919,-64.2961"/>
<polygon fill="black" stroke="black" points="922.5,-64.0457 919,-54.0457 915.5,-64.0458 922.5,-64.0457"/>
</g>
<!-- 317854438 -->
<g id="node35" class="node"><title>317854438</title>
<ellipse fill="none" stroke="black" cx="1188" cy="-27" rx="155.906" ry="26.7407"/>
<text text-anchor="middle" x="1188" y="-30.8" font-family="Times,serif" font-size="14.00">Button_press</text>
<text text-anchor="middle" x="1188" y="-15.8" font-family="Times,serif" font-size="14.00">Deactivate_OutputSelector_Activator</text>
</g>
<!-- 731090024&#45;&gt;317854438 -->
<g id="edge34" class="edge"><title>731090024&#45;&gt;317854438</title>
<path fill="none" stroke="black" d="M1188,-90.0731C1188,-81.9993 1188,-72.9428 1188,-64.2961"/>
<polygon fill="black" stroke="black" points="1191.5,-64.0457 1188,-54.0457 1184.5,-64.0458 1191.5,-64.0457"/>
</g>
<!-- 296555841 -->
<g id="node25" class="node"><title>296555841</title>
<ellipse fill="none" stroke="black" cx="1704" cy="-27" rx="155.906" ry="26.7407"/>
<text text-anchor="middle" x="1704" y="-30.8" font-family="Times,serif" font-size="14.00">Button_press</text>
<text text-anchor="middle" x="1704" y="-15.8" font-family="Times,serif" font-size="14.00">Deactivate_OutputSelector_Activator</text>
</g>
<!-- 1482825268&#45;&gt;296555841 -->
<g id="edge24" class="edge"><title>1482825268&#45;&gt;296555841</title>
<path fill="none" stroke="black" d="M1704,-90.0731C1704,-81.9993 1704,-72.9428 1704,-64.2961"/>
<polygon fill="black" stroke="black" points="1707.5,-64.0457 1704,-54.0457 1700.5,-64.0458 1707.5,-64.0457"/>
</g>
<!-- 1691409756 -->
<g id="node31" class="node"><title>1691409756</title>
<ellipse fill="none" stroke="black" cx="403" cy="-27" rx="155.906" ry="26.7407"/>
<text text-anchor="middle" x="403" y="-30.8" font-family="Times,serif" font-size="14.00">Button_press</text>
<text text-anchor="middle" x="403" y="-15.8" font-family="Times,serif" font-size="14.00">Deactivate_OutputSelector_Activator</text>
</g>
<!-- 829092956&#45;&gt;1691409756 -->
<g id="edge30" class="edge"><title>829092956&#45;&gt;1691409756</title>
<path fill="none" stroke="black" d="M403,-90.0731C403,-81.9993 403,-72.9428 403,-64.2961"/>
<polygon fill="black" stroke="black" points="406.5,-64.0457 403,-54.0457 399.5,-64.0458 406.5,-64.0457"/>
</g>
</g>
</svg>
